<svg id="Calque_1" data-name="Calque 1" xmlns="http://www.w3.org/2000/svg" viewBox="0 0 170.1 170.05"><defs><style>.cls-1{fill:#40352c;}</style></defs><title>logo</title><path class="cls-1" d="M118.05,15.2c17,0,33.93.28,50.89-.1,9.76-.23,16.59,7.2,16.53,16.63q-.32,51,0,102.08a15.92,15.92,0,0,1-16.14,16.13q-51.32-.33-102.65,0c-9.87.06-16.26-7.47-16.2-16.31.22-34,.08-68,.09-102.07,0-10.58,5.89-16.36,16.55-16.36Zm-4.6,73c-1.24-1.11-2-1.75-2.77-2.46a82,82,0,0,0-7-6.75c-1.22-.93-3.66-1.56-4.81-.95a7.22,7.22,0,0,0-3,4.57c-.25,1.25.81,3.11,1.82,4.19,3.58,3.81,7.35,7.45,11.13,11.07,3,2.83,5.48,2.78,8.46-.11s5.67-5.64,8.5-8.47l12.91-12.92a5,5,0,0,0,.95-6.27,4.2,4.2,0,0,0-5-2.29,7.3,7.3,0,0,0-3.26,2.07C125.37,75.89,119.5,82,113.45,88.2Z" transform="translate(-15.4 -15.09)"/><path class="cls-1" d="M40.54,50.08v3.05q0,40.05,0,80.09c0,16.25,10.5,26.89,26.79,26.93,26.51.07,53,0,79.51,0,3.69,0,3.7,0,3.7,3.75,0,2,0,4,0,6a15.37,15.37,0,0,1-14.82,15.18c-.76,0-1.52,0-2.29,0H33c-11.63,0-17.56-5.95-17.56-17.62,0-33.66.09-67.31-.06-101,0-10.38,7.58-16.09,13.5-16.43C32.59,49.91,36.31,50.08,40.54,50.08Z" transform="translate(-15.4 -15.09)"/></svg>